<?xml version="1.0" encoding="UTF-8"?>
<svg xmlns="http://www.w3.org/2000/svg" width="320" height="240" viewBox="0 0 320 240" role="img" aria-label="Double Espresso">
  <defs>
    <linearGradient id="bg" x1="0" y1="0" x2="1" y2="1">
      <stop offset="0" stop-color="#e8f8e5"/>
      <stop offset="1" stop-color="#31aa2f"/>
    </linearGradient>
    <filter id="shadow" x="-20%" y="-20%" width="140%" height="140%">
      <feDropShadow dx="0" dy="8" stdDeviation="7" flood-color="#301848" flood-opacity=".18"/>
    </filter>
  </defs>
  <rect width="320" height="240" rx="0" fill="url(#bg)"/>
  <g opacity=".16" fill="none" stroke="#301848" stroke-width="4">
    <path d="M20 54l24-14 24 14v28L44 96 20 82z"/>
    <path d="M252 36l24-14 24 14v28l-24 14-24-14z"/>
    <path d="M232 156l28-16 28 16v32l-28 16-28-16z"/>
  </g>
  <g filter="url(#shadow)">
    <path d="M72 36h176l40 70-40 70H72l-40-70z" fill="#ffffff" opacity=".94"/>
    <rect x="108" y="82" width="104" height="66" rx="16" fill="#301848"/><path d="M212 94h16c14 0 14 42 0 42h-16" fill="none" stroke="#301848" stroke-width="12"/><rect x="126" y="146" width="76" height="14" rx="7" fill="#f8c800"/><path d="M134 62c-8-12 8-18 0-30M160 62c-8-12 8-18 0-30M186 62c-8-12 8-18 0-30" stroke="#f8c800" stroke-width="7" stroke-linecap="round"/>
  </g>
  <rect x="24" y="188" width="272" height="35" rx="17" fill="#ffffff" opacity=".92"/>
  <text x="160" y="205" text-anchor="middle" font-family="Avenir Next, Segoe UI, Arial, sans-serif" font-size="16" font-weight="800" fill="#301848">Double Espresso</text>
  <text x="160" y="28" text-anchor="middle" font-family="Avenir Next, Segoe UI, Arial, sans-serif" font-size="12" font-weight="800" fill="#301848" opacity=".75">Drinks</text>
</svg>
