<?xml version="1.0" encoding="UTF-8"?>
<svg xmlns="http://www.w3.org/2000/svg" width="320" height="240" viewBox="0 0 320 240" role="img" aria-label="Plain Croissant">
  <defs>
    <linearGradient id="bg" x1="0" y1="0" x2="1" y2="1">
      <stop offset="0" stop-color="#fff4bf"/>
      <stop offset="1" stop-color="#f8c800"/>
    </linearGradient>
    <filter id="shadow" x="-20%" y="-20%" width="140%" height="140%">
      <feDropShadow dx="0" dy="8" stdDeviation="7" flood-color="#301848" flood-opacity=".18"/>
    </filter>
  </defs>
  <rect width="320" height="240" rx="0" fill="url(#bg)"/>
  <g opacity=".16" fill="none" stroke="#301848" stroke-width="4">
    <path d="M20 54l24-14 24 14v28L44 96 20 82z"/>
    <path d="M252 36l24-14 24 14v28l-24 14-24-14z"/>
    <path d="M232 156l28-16 28 16v32l-28 16-28-16z"/>
  </g>
  <g filter="url(#shadow)">
    <path d="M72 36h176l40 70-40 70H72l-40-70z" fill="#ffffff" opacity=".94"/>
    <path d="M88 126c28-55 116-70 148 0-42 35-109 35-148 0z" fill="#e01838"/><path d="M112 123c12-23 32-38 48-44 16 6 36 21 48 44" fill="none" stroke="#301848" stroke-width="12" stroke-linecap="round"/><path d="M126 134c28 15 53 15 68 0" stroke="#fff" stroke-width="8" stroke-linecap="round"/>
  </g>
  <rect x="24" y="188" width="272" height="35" rx="17" fill="#ffffff" opacity=".92"/>
  <text x="160" y="205" text-anchor="middle" font-family="Avenir Next, Segoe UI, Arial, sans-serif" font-size="16" font-weight="800" fill="#301848">Plain Croissant</text>
  <text x="160" y="28" text-anchor="middle" font-family="Avenir Next, Segoe UI, Arial, sans-serif" font-size="12" font-weight="800" fill="#301848" opacity=".75">Bakery</text>
</svg>
