<?xml version="1.0" encoding="UTF-8"?>
<svg xmlns="http://www.w3.org/2000/svg" width="320" height="240" viewBox="0 0 320 240" role="img" aria-label="BBQ Pizza">
  <defs>
    <linearGradient id="bg" x1="0" y1="0" x2="1" y2="1">
      <stop offset="0" stop-color="#e8f8e5"/>
      <stop offset="1" stop-color="#31aa2f"/>
    </linearGradient>
    <filter id="shadow" x="-20%" y="-20%" width="140%" height="140%">
      <feDropShadow dx="0" dy="8" stdDeviation="7" flood-color="#301848" flood-opacity=".18"/>
    </filter>
  </defs>
  <rect width="320" height="240" rx="0" fill="url(#bg)"/>
  <g opacity=".16" fill="none" stroke="#301848" stroke-width="4">
    <path d="M20 54l24-14 24 14v28L44 96 20 82z"/>
    <path d="M252 36l24-14 24 14v28l-24 14-24-14z"/>
    <path d="M232 156l28-16 28 16v32l-28 16-28-16z"/>
  </g>
  <g filter="url(#shadow)">
    <path d="M72 36h176l40 70-40 70H72l-40-70z" fill="#ffffff" opacity=".94"/>
    <path d="M108 47l112 128c-42 19-91 11-132-18z" fill="#f8c800"/><path d="M108 47c40 2 83 43 112 128" stroke="#301848" stroke-width="16" stroke-linecap="round"/><circle cx="141" cy="96" r="11" fill="#301848"/><circle cx="168" cy="126" r="10" fill="#301848"/><circle cx="188" cy="153" r="8" fill="#301848"/>
  </g>
  <rect x="24" y="188" width="272" height="35" rx="17" fill="#ffffff" opacity=".92"/>
  <text x="160" y="205" text-anchor="middle" font-family="Avenir Next, Segoe UI, Arial, sans-serif" font-size="16" font-weight="800" fill="#301848">BBQ Pizza</text>
  <text x="160" y="28" text-anchor="middle" font-family="Avenir Next, Segoe UI, Arial, sans-serif" font-size="12" font-weight="800" fill="#301848" opacity=".75">Pizza</text>
</svg>
