<?xml version="1.0" encoding="UTF-8"?>
<svg xmlns="http://www.w3.org/2000/svg" width="320" height="240" viewBox="0 0 320 240" role="img" aria-label="Beef Burger">
  <defs>
    <linearGradient id="bg" x1="0" y1="0" x2="1" y2="1">
      <stop offset="0" stop-color="#f1e8fb"/>
      <stop offset="1" stop-color="#301848"/>
    </linearGradient>
    <filter id="shadow" x="-20%" y="-20%" width="140%" height="140%">
      <feDropShadow dx="0" dy="8" stdDeviation="7" flood-color="#301848" flood-opacity=".18"/>
    </filter>
  </defs>
  <rect width="320" height="240" rx="0" fill="url(#bg)"/>
  <g opacity=".16" fill="none" stroke="#e01838" stroke-width="4">
    <path d="M20 54l24-14 24 14v28L44 96 20 82z"/>
    <path d="M252 36l24-14 24 14v28l-24 14-24-14z"/>
    <path d="M232 156l28-16 28 16v32l-28 16-28-16z"/>
  </g>
  <g filter="url(#shadow)">
    <path d="M72 36h176l40 70-40 70H72l-40-70z" fill="#ffffff" opacity=".94"/>
    <path d="M93 97c8-32 126-32 134 0z" fill="#36acd4"/><rect x="88" y="98" width="144" height="22" rx="11" fill="#e01838"/><rect x="94" y="124" width="132" height="16" rx="8" fill="#31aa2f"/><rect x="90" y="142" width="140" height="18" rx="9" fill="#e01838"/><path d="M98 166h124c-8 23-116 23-124 0z" fill="#36acd4"/><circle cx="137" cy="80" r="5" fill="#fff"/><circle cx="160" cy="76" r="5" fill="#fff"/><circle cx="184" cy="81" r="5" fill="#fff"/>
  </g>
  <rect x="24" y="188" width="272" height="35" rx="17" fill="#ffffff" opacity=".92"/>
  <text x="160" y="205" text-anchor="middle" font-family="Avenir Next, Segoe UI, Arial, sans-serif" font-size="16" font-weight="800" fill="#301848">Beef Burger</text>
  <text x="160" y="28" text-anchor="middle" font-family="Avenir Next, Segoe UI, Arial, sans-serif" font-size="12" font-weight="800" fill="#301848" opacity=".75">BU001</text>
</svg>
